<svg id="Layer_1" data-name="Layer 1" xmlns="http://www.w3.org/2000/svg" viewBox="0 0 1718.96 1878.79"><defs><style>.cls-1{fill:#fff;}.cls-2{fill:#ffcdaa;}.cls-3{fill:#f44823;}.cls-4{fill:none;stroke:#000;stroke-miterlimit:10;stroke-width:10px;}</style></defs><title>cigarro</title><rect class="cls-1" x="283.99" y="884.19" width="1735.43" height="196.67" transform="translate(-501.18 992.43) rotate(-43.09)"/><path d="M1717.91,325l127.53,136.3L585.49,1640.09,458,1503.78,1717.91,325m.47-14.14L443.82,1503.31,585,1654.22,1859.57,461.73,1718.38,310.82Z" transform="translate(-140.61 -59.47)"/><rect class="cls-2" x="141.85" y="1576.16" width="541.28" height="196.66" transform="translate(-1173.35 674.07) rotate(-43.09)"/><path d="M542.7,1424.85l127.53,136.31-388,363L154.74,1787.82l388-363m.47-14.14L140.61,1787.35,281.8,1938.26l402.57-376.63-141.2-150.92Z" transform="translate(-140.61 -59.47)"/><rect class="cls-3" x="1615.22" y="357.34" width="196.38" height="196.67" transform="translate(10.31 1234.07) rotate(-43.09)"/><path d="M1717.7,323.85l127.53,136.3-136.1,127.34L1581.6,451.19l136.1-127.34m.47-14.14-150.71,141,141.2,150.91,150.71-141-141.2-150.92Z" transform="translate(-140.61 -59.47)"/><rect x="1701.53" y="359.35" width="23.62" height="196.67" transform="translate(8.91 1234.57) rotate(-43.09)"/><path d="M1654.54,384.88l127.53,136.31-9.94,9.3L1644.6,394.19l9.94-9.31m.47-14.13-24.55,23,141.2,150.91,24.55-23L1655,370.75Z" transform="translate(-140.61 -59.47)"/><path class="cls-4" d="M805.28,62.22C913.73,227,998.12,263.4,1056.89,263.76c126.08.77,174.84-164.07,299.08-161C1451,105.1,1532.9,204.35,1589.3,293" transform="translate(-140.61 -59.47)"/><path class="cls-4" d="M803.28,95.22C911.73,260,996.12,296.4,1054.89,296.76c126.08.77,174.84-164.07,299.08-161C1449,138.1,1530.9,237.35,1587.3,326" transform="translate(-140.61 -59.47)"/><path class="cls-4" d="M803.28,132.22C911.73,297,996.12,333.4,1054.89,333.76c126.08.77,174.84-164.07,299.08-161C1449,175.1,1530.9,274.35,1587.3,363" transform="translate(-140.61 -59.47)"/></svg>