<svg id="Layer_1" data-name="Layer 1" xmlns="http://www.w3.org/2000/svg" viewBox="0 0 1875 1738.92"><defs><style>.cls-1{fill:#fee45a;}.cls-1,.cls-2,.cls-3,.cls-4,.cls-5{stroke:#000;stroke-miterlimit:10;stroke-width:10px;}.cls-2{fill:#fe9738;}.cls-3{fill:#9e5528;}.cls-4{fill:#e94444;}.cls-5{fill:#bbec6c;}</style></defs><title>hamburguer</title><rect class="cls-1" x="121" y="839.34" width="1624.07" height="481.87"/><path class="cls-2" d="M1840.26,850a494,494,0,0,0,6.58-80.31c0-354.84-379.54-642.49-847.73-642.49S151.39,414.81,151.39,769.65A494,494,0,0,0,158,850Z" transform="translate(-75 -122.16)"/><rect x="1201.13" y="276.8" width="44.62" height="93.22" rx="5" ry="5" transform="translate(-58.79 580.72) rotate(-32.26)"/><rect x="903.04" y="145.72" width="44.62" height="93.22" rx="5" ry="5"/><rect x="754.96" y="272.34" width="44.62" height="93.22" rx="5" ry="5" transform="translate(56.92 -341.17) rotate(17.5)"/><rect class="cls-2" x="76" y="1153.89" width="1696" height="580.02" rx="174.69" ry="174.69"/><rect class="cls-3" x="5" y="727.8" width="1842.69" height="227.55" rx="25.5" ry="25.5"/><rect class="cls-4" x="27.31" y="1107.05" width="1842.69" height="240.93" rx="25.5" ry="25.5"/><path class="cls-5" d="M1775.78,1232.74H276c29.56,23.45,49.08,63.15,49.38,108.25,22.9-25.68,53.14-41.32,86.33-41.32,57.43,0,106.1,46.8,123,111.54H715.49c16.9-64.74,65.57-111.54,123-111.54s106.11,46.8,123,111.54h218c16.9-64.74,65.56-111.54,123-111.54s106.11,46.8,123,111.54h160c16.9-64.74,65.57-111.54,123-111.54a105,105,0,0,1,23,2.59C1739.28,1273.59,1755.06,1249.18,1775.78,1232.74Z" transform="translate(-75 -122.16)"/></svg>