<svg id="Layer_1" data-name="Layer 1" xmlns="http://www.w3.org/2000/svg" viewBox="0 0 1867 1867"><defs><style>.cls-1{fill:#f48e23;}.cls-2{fill:#ffdd67;}.cls-3{fill:#fff;}</style></defs><title>nausea</title><path class="cls-1" d="M933.5,1857c-124.68,0-245.62-24.42-359.46-72.57A926.82,926.82,0,0,1,82.57,1293C34.42,1179.12,10,1058.18,10,933.5S34.42,687.88,82.57,574A926.85,926.85,0,0,1,574,82.57C687.88,34.42,808.82,10,933.5,10S1179.12,34.42,1293,82.57A926.82,926.82,0,0,1,1784.43,574C1832.58,687.88,1857,808.82,1857,933.5s-24.42,245.62-72.57,359.46A926.82,926.82,0,0,1,1293,1784.43C1179.12,1832.58,1058.18,1857,933.5,1857Z"/><path d="M933.5,20a919.71,919.71,0,0,1,184.12,18.56,913.16,913.16,0,0,1,710.83,710.82,922.42,922.42,0,0,1,0,368.24,913.18,913.18,0,0,1-710.83,710.83,922.42,922.42,0,0,1-368.24,0A913.18,913.18,0,0,1,38.55,1117.62a922.42,922.42,0,0,1,0-368.24A913.18,913.18,0,0,1,749.38,38.55,919.7,919.7,0,0,1,933.5,20m0-20C417.94,0,0,417.94,0,933.5S417.94,1867,933.5,1867,1867,1449.06,1867,933.5,1449.06,0,933.5,0Z"/><circle class="cls-2" cx="971" cy="998" r="787"/><path class="cls-3" d="M443,776.31c63.42,93.58,187.19,129.86,292.82,80.39s157-167.77,125.71-276.41Z"/><path class="cls-3" d="M1424.57,776.31c-63.41,93.58-187.18,129.86-292.81,80.39s-157-167.77-125.71-276.41Z"/><path class="cls-3" d="M928.5,1195c-102.78,0-192.93,31-243.5,77.57v90.24c55.3-40.25,143.73-66.31,243.37-66.31,99.8,0,188.35,26.14,243.63,66.5v-90.43C1121.43,1226,1031.28,1195,928.5,1195Z"/><path class="cls-3" d="M722.05,1304.5c0-34.82-13.66-65.37-34.19-82.5H648.08c17.74,18.74,29.23,48.7,29.23,82.46S665.79,1368.27,648,1387h39.86C708.39,1369.87,722.05,1339.32,722.05,1304.5Z"/><path class="cls-3" d="M1145,1304.5c0-34.82,13.66-65.37,34.19-82.5H1219c-17.74,18.74-29.23,48.7-29.23,82.46s11.52,63.81,29.31,82.54h-39.86C1158.66,1369.87,1145,1339.32,1145,1304.5Z"/></svg>