<svg id="Layer_1" data-name="Layer 1" xmlns="http://www.w3.org/2000/svg" viewBox="0 0 1867 1867"><defs><style>.cls-1{fill:#ffdd67;}.cls-2,.cls-3{fill:#fff;}.cls-3{stroke:#000;stroke-miterlimit:10;stroke-width:12px;}</style></defs><title>personagem</title><path class="cls-1" d="M933.5,1857c-124.68,0-245.62-24.42-359.46-72.57A926.82,926.82,0,0,1,82.57,1293C34.42,1179.12,10,1058.18,10,933.5S34.42,687.88,82.57,574A926.85,926.85,0,0,1,574,82.57C687.88,34.42,808.82,10,933.5,10S1179.12,34.42,1293,82.57A926.82,926.82,0,0,1,1784.43,574C1832.58,687.88,1857,808.82,1857,933.5s-24.42,245.62-72.57,359.46A926.82,926.82,0,0,1,1293,1784.43C1179.12,1832.58,1058.18,1857,933.5,1857Z"/><path d="M933.5,20a919.71,919.71,0,0,1,184.12,18.56,913.16,913.16,0,0,1,710.83,710.82,922.42,922.42,0,0,1,0,368.24,913.18,913.18,0,0,1-710.83,710.83,922.42,922.42,0,0,1-368.24,0A913.18,913.18,0,0,1,38.55,1117.62a922.42,922.42,0,0,1,0-368.24A913.18,913.18,0,0,1,749.38,38.55,919.7,919.7,0,0,1,933.5,20m0-20C417.94,0,0,417.94,0,933.5S417.94,1867,933.5,1867,1867,1449.06,1867,933.5,1449.06,0,933.5,0Z"/><circle class="cls-1" cx="950" cy="965" r="847"/><path d="M312.73,821c51.78-124.14,194.39-182.79,318.53-131a243.51,243.51,0,0,1,131,131h95.48Q859,804.94,859,788.51C859,586.11,715.06,422,537.5,422S216,586.11,216,788.51q0,16.43,1.25,32.49Z"/><path class="cls-2" d="M292.06,865A32.55,32.55,0,0,0,321,847.18c61.67-119.57,208.59-166.51,328.16-104.84A243.62,243.62,0,0,1,754,847.18,32.55,32.55,0,0,0,782.94,865h43.68A32.31,32.31,0,0,0,859,832.83v-.32C859,630.11,715.06,466,537.5,466S216,630.11,216,832.51v.32A32.31,32.31,0,0,0,248.38,865Z"/><ellipse class="cls-2" cx="266" cy="850.5" rx="50" ry="51.5"/><ellipse class="cls-2" cx="809" cy="850.5" rx="50" ry="51.5"/><path d="M1104.73,826c51.78-124.14,194.39-182.79,318.53-131a243.51,243.51,0,0,1,131,131h95.48q1.24-16.07,1.25-32.49C1651,591.11,1507.06,427,1329.5,427S1008,591.11,1008,793.51q0,16.43,1.25,32.49Z"/><path class="cls-2" d="M1084.06,870A32.55,32.55,0,0,0,1113,852.18c61.67-119.57,208.59-166.51,328.16-104.84A243.62,243.62,0,0,1,1546,852.18,32.55,32.55,0,0,0,1574.94,870h43.68A32.31,32.31,0,0,0,1651,837.83v-.32C1651,635.11,1507.06,471,1329.5,471S1008,635.11,1008,837.51v.32A32.31,32.31,0,0,0,1040.38,870Z"/><ellipse class="cls-2" cx="1058" cy="855.5" rx="50" ry="51.5"/><ellipse class="cls-2" cx="1601" cy="855.5" rx="50" ry="51.5"/><path class="cls-3" d="M926,1158c-264.29,0-507.72-20-701.84-53.71C243,1446.7,550.12,1719,926.28,1719s683.36-272.35,702.13-614.81C1434.19,1137.92,1190.54,1158,926,1158Z"/><path d="M916,1457.88c266.25,0,445.51-26.78,629-73.88,10.58-40.59,52.75-84.77,55-128-184.78,33.74-388.58,54-640.27,54-251.44,0-523-20.32-707.73-54,2.66,50.86,51.37,100.47,65.46,147.58C486.49,1437.77,693,1457.88,916,1457.88Z"/></svg>