<?xml version="1.0"?><svg width="259.477" height="259.784" xmlns="http://www.w3.org/2000/svg">

 <g>
  <title>Layer 1</title>
  <path id="path5" d="m258.928009,126.741997c0.134003,-3.353996 1.071014,-7.523994 0.144012,-10.768997c-1.139008,-3.982002 -3.706009,-9.099998 -3.706009,-13.235001c0,-3.061996 1.404007,-9.863998 -0.555008,-12.267998c-2.602997,-3.195999 -5.121002,-7.580002 -8.33699,-10.153c-2.621002,-2.096001 -8.087006,-4.857002 -9.692001,-7.752998c-1.729996,-3.121002 0.606003,-8.571003 -1.279999,-11.619003c-2.749008,-4.443001 -5.499008,-8.886002 -8.249008,-13.327999c-2.460999,-3.977001 -4.80899,-4.185001 -9.341003,-5.847c-10.784988,-3.953999 -17.500992,-7.209 -24.72699,-16.5c-1.969009,-2.532 -3.667007,-5.703001 -6.486008,-7.314001c-3.414001,-1.952 -8.537994,-6.469999 -12.401001,-7.087999c-2.810989,-0.45 -7.707993,1.271 -10.603989,1.685c-3.134003,0.448 -6.664001,0.544999 -9.563004,1.875c1.613998,-4.386001 -11.818008,-12.952 -15.427002,-13.841c-4.182007,-1.03 -14.939003,-0.894 -17.795998,1.978c-2.208,2.219 -5.861,3.774 -8.481003,5.522c-4.103996,2.739 -5.292,4.003 -9.710999,1.793c-6.777,-3.39 -18.272003,-3.624 -24.549004,0.681c-2.893997,1.984 -9.746994,4.803 -10.561996,8.39c-1.290001,5.676001 -1.529999,7.928999 -0.220001,13.470001c1.219002,5.154999 2.438004,10.309998 3.656998,15.463997c0.440002,1.862003 -7.486996,9.563004 -8.729996,11.118c-2.953003,3.690002 -3.888,4.366001 -3.888,8.959999c0,3.241005 1.27,9.342003 -0.287003,12.254005c-5.149998,9.636993 -10.299999,19.272995 -15.451,28.908997c-3.747997,7.012001 -6.758999,14.298004 -12.237999,20.071999c-3.687,3.886002 -7.375,7.770996 -11.062,11.656006c-1.497,1.578003 -1.372,7.871994 -1.705,9.931992c-3.155999,19.49501 -6.310999,38.988998 -9.462999,58.484009c-1.244,7.690994 -8.117,15.696991 -7.907,23.477997c0.106,3.966995 -0.973,10.117004 0.372,13.824005c1.557,4.294998 6.892,8.932999 9.693,12.56398c2.24,2.903015 16.316001,-4.818985 19.901999,-6.162979c7.198999,-2.696014 14.796999,-4.853012 21.815001,-7.985001c18.858002,-8.417999 36.811996,-20.077011 54.944,-29.96701c13.580002,-7.406998 26.433006,-16.067993 39.573997,-24.212997c30.229996,-18.735992 60.901001,-36.513992 92.499008,-52.910995c6.668991,-3.460007 13.435989,-7.19101 19.817993,-11.155006"/>
  <path fill="#E6C675" id="path7" d="m254.182999,123.974998c-0.132004,-3.427002 -0.264999,-6.853996 -0.395996,-10.281998c-3.311005,2.943001 -5.451996,6.697998 -9.919998,5.704002c-5.854004,-1.303001 -7.837997,1.326996 -12.925003,4.633995c-8.264008,5.370995 -16.774002,10.252007 -25.296005,15.209007c-6.940994,4.039993 -15.166992,4.647995 -21.427002,9.750992c-7.599991,6.194 -15.546997,10.529999 -24.130997,15.337997c-7.403992,4.146011 -14.130997,7.649002 -22.035004,10.638c-8.519989,3.220001 -19.649994,5.16301 -26.075996,11.835999c-5.612,5.82901 -9.191994,11.419006 -13.611,18.046005c-1.504997,2.257004 -6.360001,3.205002 -8.774994,4.240005c-3.744003,1.606003 -7.296005,3.552002 -11.177002,4.847992c-4.436005,1.481003 -10.805,1.987 -14.652,4.557999c-6.525002,4.361008 -11.875,9.208008 -18.762001,13.05101c-2.469002,1.378998 -7.884998,5.929993 -10.702999,5.929993c-2.654001,0 -6.111,0.960007 -8.699001,1.582001c-6.57,1.580002 -13.837,5.020004 -19.775,8.305008c1.26,1.417999 5.195,7.53299 6.986,6.877991c4.606001,-1.682999 9.212,-3.36499 13.819,-5.048996c8.523001,-3.113007 18.781,-5.313004 26.704,-9.766006c17.635002,-9.912994 35.270996,-19.824997 52.905998,-29.737991c27.230995,-15.306 52.739006,-33.516006 80.144997,-48.428009c14.146988,-7.696991 28.294998,-15.395996 42.442001,-23.093994c6.13501,-3.337997 12.268997,-6.675995 18.403,-10.014008c2.125,-1.154991 5.596008,-2.405991 6.955002,-4.176994"/>
  <path fill="#B38F36" id="path9" d="m83.731003,12.054c-5.214005,3.912 -9.542,4.952001 -11.270004,11.866c-0.521996,2.091999 -1.809998,4.715 -0.394997,6.129999c5.290001,5.289001 5.337997,6.177002 5.337997,13.643002c9.290001,-2.859001 18.446999,-5.991001 27.633003,-9.171001c4.403,-1.523998 5.626999,0.351002 9.737999,2.843002c4.960999,3.007 5.987999,4.021 11.549995,3.34c4.072006,-0.498001 10.324997,-2.566002 14.356003,-1.756001c3.431,0.688999 7.526001,4.153 10.675003,5.733997c5.612,2.816002 9.179001,7.711002 15.600998,7.711002c7.438004,0 13.166992,1.631001 20.119995,4.210999c4.938004,1.832001 9.875,3.664001 14.813004,5.496002c2.537003,0.941998 5.145004,8.501995 6.416,10.771999c1.473007,2.628998 3.197998,8.139999 5.962997,9.621002c4.033997,2.160995 8.701996,3.859993 11.876007,7.200996c2.358994,2.484001 5.890991,4.639999 5.890991,8.179001c0,1.909996 -0.265991,4.663002 0.396011,5.931999c0.901993,1.732002 6.062988,6.580002 7.909988,7.514999c7.984009,4.045998 8.389008,-1.554001 10.350998,-7.673996c0.921005,-2.874001 -0.998993,-11.014999 -2.599991,-13.530006c-4.069,-6.395996 -5.589996,-8.561996 -12.287003,-11.911995c-1.710999,-0.855003 -4.195999,-1.187004 -4.123001,-3.235001c0.104004,-2.925003 1.072998,-7.092003 0.354004,-9.920998c-1.326004,-5.214005 -6.306,-10.967003 -9.003998,-15.661003c-1.682007,-2.924999 -12.660004,-5.394001 -15.822006,-6.711002c-5.061005,-2.107998 -10.084,-0.692997 -15.511993,-0.167999c0.362991,-4.737999 2.049988,-8.975998 -1.327011,-12.477999c-3.745987,-3.885 -6.82399,-8.106001 -11.76799,-10.304001c-6.594009,-2.931999 -8.070999,-3.203999 -15.118011,-1.838999c-4.668991,0.903 -8.522995,2.567999 -12.915985,4.451c0.937988,-7.059001 -0.668015,-7.442 -5.686005,-12.646001c-5.050003,-5.238 -7.529007,-4.477 -14.964996,-4.743c-5.488007,-0.196 -9.148003,1.277 -12.530006,5.141c-4.204002,4.803 -7.021004,6.889 -12.694,9.875c-2.168999,-4.337 -1.922997,-5.426 -6.564003,-6.030999c-4.800995,-0.629001 -9.600998,-1.255 -14.399994,-1.881001"/>
  <path fill="#E6172E" id="path11" d="m81.753998,48.042c-3.612,3.125 -7.224998,6.25 -10.836998,9.375c-4.281998,3.705002 -4.383003,5.713001 -5.768997,11.422997c-0.911003,3.755005 -0.917999,7.995003 -1.979004,11.632004c-1.063,3.649002 -3.891998,7.641998 -5.684998,11.002998c-4.345001,8.145004 -7.421001,16.907005 -11.718002,24.984001c-4.365997,8.207001 -11.518997,15.585999 -17.276999,22.783005c-6.463001,8.078003 -7.684,13.149994 -8.094,22.996994c-0.413,9.908005 -1.635,18.490005 -3.104,28.173996c-1.954,12.879013 -6.115001,24.629013 -10.429,37.234009c-1.44,4.209 -1.295,9.367004 -1.83,13.780991c4.233,-2.36499 8.466,-4.729996 12.7,-7.095993c2.993,-1.671997 8.789,-0.416 12.213999,-0.416c6.028999,0 10.341999,-3.645004 15.028,-7.119003c5.277,-3.912003 12.065002,-7.776001 16.017002,-13.052002c5.465,-7.29599 11.567997,-2.278 18.782001,-4.744995c14.476997,-4.949997 22.960999,-17.669006 31.556,-29.699005c3.673996,-5.14299 2.981995,-5.332993 9.050995,-3.209991c3.893005,1.362 6.764,-0.908997 10.543007,-2.492004c8.64299,-3.621002 17.770996,-6.526993 25.522995,-11.832001c15.686005,-10.733002 32.507004,-19.541 46.718994,-32.257004c0.526001,1.318008 1.053009,2.637009 1.57901,3.955002c4.712997,-2.723999 13.207001,-10.284996 18.588989,-10.284996c3.91301,0 8.840012,-1.191002 10.084015,-4.942001c0.310989,-0.933998 2.232986,-3.385002 2.174988,-4.152c-0.185989,-2.431999 -7.162994,-7.784996 -8.917999,-9.692001c-1.615997,-1.755997 1.039001,-6.441994 -0.419998,-8.432999c-3.028,-4.132996 -3.796997,-5.503998 -8.542999,-7.040001c-1.903992,-0.615997 -8.391998,-1.518997 -9.240005,-3.437996c-1.970993,-4.454002 -3.939987,-8.907005 -5.909988,-13.361c-0.715012,-1.614998 -1.775009,-6.372002 -3.651001,-6.861c-4.98201,-1.300003 -9.964996,-2.600002 -14.947006,-3.899002c-4.778,-1.246998 -19.405991,-6.880001 -23.11499,-2.641998c-3.533005,-3.701 -7.882004,-6.112 -12.392014,-8.310001c-2.785995,-1.356998 -7.582001,-5.032001 -10.702988,-5.143002c-4.731003,-0.168999 -9.460999,-0.336998 -14.192009,-0.505997c-3.596001,-0.128002 -6.812996,0.606998 -9.503998,-1.816002c-3.673996,-3.306999 -4.703003,-6.355999 -9.173996,-4.043999c-5.615005,2.904999 -17.573006,10.186001 -23.129005,9.140999"/>
  <path id="path13" d="m41.417999,152.841995c-4.613998,-1.317001 -9.228001,-2.636002 -13.841999,-3.952988c-1.025,4.526993 -2.051001,9.054993 -3.076,13.582993c-1.441999,6.365997 -3.207001,7.009995 3.273001,8.563004c6.33,1.51799 5.393,0.229004 8.144999,-5.636017c1.530003,-3.25798 5.688999,-9.73999 5.5,-12.556992"/>
  <path fill="#66CC29" id="path15" d="m36.272999,155.613007c-1.978001,-0.791992 -3.954998,-1.582993 -5.931999,-2.375c-0.441999,2.025009 -5.434999,16.253998 0.792,13.445007c1.839001,-0.82901 4.618,-9.035019 5.139999,-11.070007"/>
  <path id="path17" d="m23.621,203.070007c-1.187,2.020004 -3.687,4.563004 -5.736,5.931c-2.583,1.723007 -1.906,3.677002 -3.757,5.537003c-5.502,5.533005 -0.275001,16.052994 6.944,15.613007c8.41,-0.511002 19.930998,-2.539001 25.059,-10.228012c2.565998,-3.848999 4.404999,-6.064987 4.776001,-10.132996c0.243999,-2.668991 -0.452,-5.557999 0.791,-7.908005c-4.247002,-0.431992 -5.574001,-3.603989 -10.281002,-3.163986c-4.807999,0.450989 -14.107,5.345978 -17.796,4.35199"/>
  <path fill="#4D3D26" id="path19" d="m25.6,206.628998c-3.433001,2.639999 -7.726,5.570007 -8.701,9.887009c-1.27,5.625 3.788,7.901001 8.51,8.149994c5.455999,0.287994 10.303001,-3.873001 15.010998,-6.455002c3.167004,-1.737 4.208,-6.209991 4.953003,-9.209c0.836998,-3.369995 0.869999,-3.843994 -1.189003,-5.539001c-4.549,-3.744995 -13.522999,0.768005 -18.583998,3.166"/>
  <path id="path21" d="m28.365,207.024994c-1.358,1.356995 -8.729,11.166 -1.837999,10.634995c4.472,-0.345001 9.074001,-1.324005 11.725998,-5.296997c1.445004,-2.165009 0.769001,-3.979004 1.581001,-6.130997c-3.728001,-1.743988 -6.988998,-0.83699 -11.469,0.792999"/>
  <path id="path23" d="m109.438004,130.300995c5.435997,0.567993 11.393997,-3.202003 17.399994,-1.187012c3.902008,1.310013 4.570999,3.567001 5.548996,7.087006c1.070999,3.850998 -0.697998,4.886002 -3.038986,8.190994c-4.021004,5.678009 -9.660004,7.785004 -15.767006,11.117004c-3.456001,1.88501 -10.017998,0.087006 -13.239998,-1.479996c-3.603004,-1.753006 -4.981003,-2.074997 -5.141006,-5.932007c-0.145996,-3.528992 1.665001,-5.667999 3.560005,-8.502991c2.071999,-3.098999 10.514,-7.542999 10.678001,-9.292999"/>
  <path fill="#4D3D26" id="path25" d="m111.018997,133.070007c3.441002,-0.330002 8.600006,-3.110992 12.258003,-1.582001c5.379005,2.248001 2.957001,8.249008 1.025002,11.874008c-1.554001,2.916992 -8.554001,6.23999 -11.699005,7.108002c-3.408997,0.940994 -7.182999,0.579987 -10.284996,-0.791c-3.148003,-1.392014 -2.768997,-1.27301 -2.768997,-4.350006c0.000999,-6.37001 6.82,-9.567017 11.469994,-12.259003"/>
  <path id="path27" d="m110.228996,135.839996c1.833,-0.722992 4.354004,-1.070999 5.932007,-0.394989c6.718994,2.880997 0.029999,9.173996 -4.747002,10.280991c-2.932999,0.680008 -7.486,-0.229996 -7.117004,-3.563004c0.248001,-2.235992 4.213005,-5.360992 5.931999,-6.322998"/>
  <path id="path29" d="m100.739998,120.021004c-1.153999,-1.353004 -1.249001,-4.082001 -1.977997,-5.933006c-0.744003,-1.888 -2.406998,-3.499001 -3.167,-5.140999c-4.209,6.314003 -7.927002,14.534004 -13.802002,19.401009c-7.200996,5.966995 -13.756996,11.804993 -20.208,18.563995c4.879997,0.886002 7.730003,2.020996 12.168999,0.013c4.582001,-2.072006 9.841003,-4.132996 13.737,-6.736008c3.384003,-2.261993 6.348,-6.942001 9.292,-9.886002c3.249001,-3.249992 3.479004,-5.196991 3.957001,-10.28199"/>
  <path fill="#FF994D" id="path31" d="m70.681,143.75c4.636002,-3.863007 9.610001,-7.483994 13.741997,-11.891006c4.717003,-5.030991 7.702003,-10.607994 11.171005,-16.584991c0.056,3.762001 1.759995,7.789001 -0.787003,11.863998c-5.060997,8.102005 -16.121002,12.494003 -24.125999,16.612"/>
  <path id="path33" d="m90.455002,63.861c-3.258003,2.776001 -7.733002,4.379997 -11.071999,7.513c-5.058006,4.746002 -6.475006,13.540001 2.258995,15.348c7.762001,1.606003 17.859001,1.780998 24.362999,-3.748001c2.627007,-2.233002 5.672005,-4.130997 6.993004,-6.853996c1.037003,-2.137001 0.601997,-4.762001 2.371002,-6.722c-2.598,-2.181999 -3.920006,-5.139999 -7.511002,-5.139999c-2.314003,0 -4.895004,-0.763004 -7.118004,-0.792004c-3.032997,-0.039001 -8.072998,1.500004 -10.284996,0.395"/>
  <path fill="#4D3D26" id="path35" d="m90.852997,67.420998c-2.266998,1.771004 -5.348999,2.140999 -7.516998,3.954002c-3.262001,2.727997 -4.488998,9.126999 0.852005,10.795998c6.276993,1.962006 14.398994,0.653999 19.673996,-3.565994c2.612999,-2.091003 2.983002,-2.706001 4.389999,-4.855003c0.936005,-1.429001 0.800003,-2.531998 1.979004,-3.558998c-2.292,-1.055 -2.963005,-2.837006 -5.931999,-3.558998c-4.454002,-1.082001 -8.970001,0.313995 -13.446007,0.788994"/>
  <path id="path37" d="m93.617996,68.211998c-2.514999,1.622002 -8.910995,4.550003 -4.742996,8.700005c5.547997,5.522995 13.146004,-2.707001 15.028,-6.721001c-3.316002,-1.783005 -5.349998,-1.979004 -10.285004,-1.979004"/>
  <path id="path39" d="m58.422001,58.722c-0.264,4.349998 -0.527,8.699997 -0.791,13.050003c4.231998,-0.407005 8.465,-0.814003 12.697002,-1.221001c5.532997,-0.532005 7.780998,0.974998 8.063995,-4.709999c0.263,-5.262005 -0.874001,-4.123005 -5.998001,-4.926003c-4.656998,-0.732002 -9.313995,-1.463001 -13.971996,-2.193001"/>
  <path fill="#66CC29" id="path41" d="m62.376999,62.674999c-0.132,1.714001 -0.264,3.427998 -0.396,5.142002c3.074001,-0.384003 12.472004,0.184998 13.052998,-3.164001c-3.928993,-0.713001 -9.455994,-0.835999 -12.656998,-1.978001"/>
  <path id="path43" d="m146.610992,71.771004c-7.492004,7.312996 -21.221001,16.750999 -21.810005,28.522995c-0.128998,2.589005 -1.221001,5.849998 0.764,7.694c3.57901,3.325005 4.195999,4.109001 8.99501,4.361c6.718994,0.351997 8.957993,-5.906998 10.867996,-11.312996c1.97699,4.745995 3.953003,9.491997 5.929993,14.237999c9.229004,-8.174004 18.457001,-16.347 27.686005,-24.521004c-4.350998,-2.899002 -8.699997,-5.798996 -13.050995,-8.698997c7.535995,0 7.738998,-0.292 12.35199,-6.222c2.862,-3.68 -2.095001,-9.854004 -4.873993,-12.079002c-9.502991,-7.605 -19.366989,7.757004 -26.860001,8.018005"/>
  <path fill="#FFF299" id="path45" d="m152.546005,110.134003c0.085007,-1.726006 -3.365997,-10.079002 -5.141998,-11.471001c-2.813004,-2.205002 -5.968002,-0.055 -8.307999,1.584c0.889008,-0.119003 1.867004,0.416 2.768997,0.393997c-1.091995,5.457001 -2.987,7.909004 -8.599991,7.909004c-4.796997,0 -5.824005,-6.970001 -4.844009,-10.280006c2.819,-9.522995 12.705002,-16.466995 19.419998,-23.016998c4.391006,-4.281998 16.618011,-13.223 22.844009,-8.694c4.524994,3.292 5.216003,7.381004 1.765991,11.598999c-2.550995,3.118004 -9.070999,1.942001 -6.062988,-2.825996c-6.456009,8.876999 -0.129013,11.152 7.115997,17.005997c-6.389008,5.528 -13.465012,14.198006 -20.958008,17.796005"/>
  <path fill="#B37D47" id="path47" d="m163.223999,84.031998c0,-4.256996 0.645996,-5.239998 3.162994,-8.700996c-4.970993,7.880997 13.063004,3.636002 8.303009,-3.164001c-0.873001,2.550003 -2.307999,4.010002 -4.742996,5.139999c0.672989,-4.731003 -3.81601,-4.186996 -6.378006,-2.556c-4.121994,2.624001 -2.975006,6.273003 -0.345001,9.280998"/>
  <path fill="#B37D47" id="path49" d="m136.332001,108.155998c1.054001,-1.186996 2.106995,-2.374001 3.160995,-3.560997c-3.203003,-1.064003 -4.085999,-7.056999 -0.395996,-8.303001c0.886993,-0.300003 3.119003,0.904999 3.953995,1.184998c-1.317993,0.923004 -2.636002,1.847 -3.953995,2.771004c0.888992,-0.119003 1.867004,0.416 2.768997,0.393997c-0.520004,2.597 -2.016998,8.515999 -5.533997,7.514"/>
  <path fill="#B37D47" id="path51" d="m173.503006,68.211998c-11.634995,-7.404999 -23.528,4.959 -31.649994,12.882004c-5.563995,5.428001 -9.132004,9.289001 -12.833008,16.076996c-2.984993,5.476006 0.879013,12.317001 7.312012,11.378006c-17.740005,-3.149002 4.327988,-23.431007 9.062988,-27.929001c5.225006,-4.965004 24.504013,-22.785004 28.903,-8.454002c-0.347,-1.294998 -0.615997,-2.635002 -0.794998,-3.954002"/>
  <path fill="#D9B86C" id="path53" d="m158.871994,104.990997c-3.453003,-5.757996 -7.262009,-9.297997 -12.261002,-13.840996c2.819,-1.793999 5.639999,-3.588005 8.459,-5.382004c0.656998,-0.417999 5.179993,5.486 5.779999,6.173004c0.589996,0.673996 5.809998,6.087997 5.306992,6.531998c-2.440979,2.153 -4.957977,4.240997 -7.284988,6.517998"/>
  <path id="path55" d="m86.5,97.082001c1.938004,2.170998 8.583,12.021996 10.944,10.305c5.448997,-3.961998 10.897003,-7.924004 16.346001,-11.886002c-2.744003,-2.862999 -7.150002,-10.676003 -10.987999,-8.339996c-5.434006,3.306999 -10.868004,6.613998 -16.302002,9.920998"/>
  <path fill="#66CC29" id="path57" d="m92.431999,97.476997c1.318001,1.846001 2.637001,3.691002 3.955002,5.537003c3.823997,-2.768997 7.646996,-5.537003 11.471001,-8.305c-4.347,-3.010002 -4.499001,-3.911003 -8.701004,-1.185997c-1.807999,1.171997 -5.503998,3.824997 -6.724998,3.953995"/>
  <path id="path59" d="m65.934998,136.628998c3.810005,-4.171005 7.809006,-7.375 9.379005,-12.807999c1.851997,-6.410995 4.445999,-11.945 3.285995,-18.520996c-1.460999,-8.282005 -3.012001,-10.786003 -8.314995,-17.415001c-4.157005,-5.195 -10.118004,-6.554001 -16.231003,-9.127998c-3.253002,-1.370003 -6.400002,9.619995 -7.716999,12.414993c-2.611,5.545006 -4.742001,11.395004 -7.188004,17.021004c-4.679996,10.764 -9.619999,21.486 -13.947998,32.389992c8.329998,3.123001 12.768002,4.737015 21.530998,4.026001c6.386002,-0.516998 14.974003,-3.248993 19.202999,-7.979996"/>
  <path id="path61" d="m141.074997,127.138c11.279007,-9.805 22.645996,-15.897003 36.888,-20.373001c4.943008,-1.553001 14.847,-0.287003 19.669998,1.389999c6.383011,2.220001 12.910004,8.516998 18.583008,12.259003c-25.046997,15.686996 -50.094009,31.375 -75.141006,47.061996c-2.876999,-8.018997 -5.533997,-14.326004 -5.533997,-22.761993c0,-6.835007 3.436005,-11.309006 5.533997,-17.576004"/>
  <path id="path63" d="m112.998001,156.401993c-0.264,4.350998 -0.528,8.701996 -0.792,13.052994c4.313995,-0.326004 8.626999,-0.651993 12.941002,-0.977997c5.763992,-0.436996 7.93399,1.164001 8.216995,-4.757996c0.281998,-5.884003 -1.848999,-4.432999 -7.518997,-5.210999c-3.804001,-0.522003 -9.524002,-0.272995 -12.847,-2.106003"/>
  <path fill="#66CC29" id="path65" d="m116.952003,160.751999c-0.131004,1.582001 -0.263,3.164001 -0.394005,4.746002c3.072998,-0.384995 12.471008,0.186005 13.050003,-3.164001c-4.233002,-0.447006 -8.436005,-1.233002 -12.655998,-1.582001"/>
  <path fill="#FF4D66" id="path67" d="m62.771,132.673996c6.790997,-5.818993 8.407001,-7.490997 10.699001,-16.034996c1.539001,-5.737 3.215996,-13.478996 -0.640999,-18.837997c-1.975006,-2.744003 -3.917999,-6.850006 -6.497002,-9.025002c-2.867001,-2.417999 -7.622002,-3.811005 -10.984001,-5.493004c-1.940998,-0.971001 -6.942001,12.672005 -8,15.183006c-4.964001,11.792 -9.639,23.702995 -14.932999,35.343994c-1.917002,4.216003 -2.021002,4.244995 2.279999,6.182007c4.181999,1.884003 6.038002,1.571991 10.693001,1.104996c7.001999,-0.701004 11.470001,-4.608002 17.382999,-8.423004"/>
  <path fill="#FFBFD9" id="path69" d="m47.743999,121.999001c-6.991001,2.446999 6.119999,7.012993 0,0"/>
  <path fill="#FFBFD9" id="path71" d="m56.839001,87.195c-2.164001,2.223999 -4.34,9.934998 0.792,9.489998c-0.743999,-0.643997 -1.462002,-1.936996 -1.187,-3.558998c0.611,-3.589996 4.269001,-2.956001 3.164001,0.792c2.584999,-3.275002 0.474998,-6.732002 -2.769001,-6.723"/>
  <path fill="#FFBFD9" id="path73" d="m62.771,96.684998c-3.063,1.008003 -1.832001,4.561005 0.792,4.747002c0.645,-1.455002 0.166,-3.393997 -0.792,-4.747002"/>
  <path fill="#FFBFD9" id="path75" d="m40.229,136.628998c1.937,-2.188995 4.860001,-9.769997 -0.789001,-9.095001c4.209,3.259003 -2.794998,9.207001 -1.975998,2.766998c-2.221001,2.623001 -0.646999,6.944 2.764999,6.328003"/>
  <path id="path77" d="m53.282001,108.946999c-1.295002,4.420998 3.330997,3.760002 2.371998,0c-0.800999,0.384003 -1.993,-0.079002 -2.371998,0"/>
  <path id="path79" d="m45.373001,135.445007c-1.732002,3.496002 2.163998,4.475006 2.370998,0.395004c-0.757999,0.164993 -2.378998,-0.395004 -2.370998,-0.395004"/>
  <path id="path81" d="m63.168999,91.544998c-0.905998,1.438004 -0.778999,2.784004 0.394001,3.558998c2.177998,-1.372993 2.437,-3.691994 -0.394001,-3.558998"/>
  <path id="path83" d="m58.023998,116.066002c-1.474998,2.654999 -5.474998,12.034004 1.190002,11.071999c-1.171001,-1.110001 -1.583,-2.113998 -1.583,-3.955002c0,-4.444 5.381001,-3.908997 3.952999,0.791c2.290001,-3.030998 1.416,-8.988998 -3.560001,-7.907997"/>
  <path id="path85" d="m46.557999,105.782997c-0.687,2.031006 -1.876999,3.476006 -0.791,5.139999c2.959003,4.533005 4.746002,-2.878998 4.746002,-5.534996c-1.242001,0.124001 -2.769001,0.019997 -3.955002,0.394997"/>
  <path fill="#FFBFD9" id="path87" d="m56.445,129.113998c-3.290001,1.160004 -1.119999,4.412994 0.792,4.746994c0.921001,-1.55899 0.693001,-3.626999 -0.792,-4.746994"/>
  <path fill="#FFBFD9" id="path89" d="m69.101997,113.693001c2.295006,-1.973999 4.753006,-9.862999 -0.397995,-9.098c4.583,3.993996 -3.677002,8.142998 -1.976006,2.374001c-2.045998,3.191002 -0.181999,7.919998 2.374001,6.723999"/>
  <path id="path91" d="m190.906998,114.482002c-1.653992,2.482994 -5.944,11.720001 0.791,11.072998c-0.905991,-0.937004 -1.483994,-2.483002 -1.188995,-4.349998c0.705994,-4.465004 4.662994,-2.859001 3.561996,1.582001c1.971008,-3.683006 1.839996,-8.935005 -3.164001,-8.305"/>
  <path fill="#FF4D66" id="path93" d="m145.427002,128.720001c9.487991,-9.486 19.992004,-14.026001 32.820999,-17.636002c11.871994,-3.339996 22.182999,3.489998 31.641998,9.331001c-22.410995,13.058998 -44.162994,27.415001 -66.440002,40.736c-2.537994,-6.089005 -3.957001,-9.505005 -3.757996,-16.018997c0.212006,-6.98201 2.276993,-10.238007 5.735001,-16.412003"/>
  <path id="path95" d="m148.195999,155.613007c-2.936996,-1.541992 -9.955994,-8.292999 -3.559998,-10.28299c-3.598999,5.990997 8.205002,8.569992 3.559998,1.97699c3.546005,2.288986 3.645996,9.413986 0,8.306"/>
  <path fill="#FFBFD9" id="path97" d="m145.031998,135.445007c-2.511993,1.56601 -0.384995,4.443008 1.975998,4.348007c0.369003,-1.78801 -0.352997,-3.416016 -1.975998,-4.348007"/>
  <path fill="#FFBFD9" id="path99" d="m196.048004,125.556c3.269989,0.362 2.369003,-3.596001 0.39299,-4.349998c-1.21199,1.179001 -1.381989,2.676003 -0.39299,4.349998"/>
  <path id="path101" d="m175.087006,132.279007c-1.311996,3.666 3.031998,4.263 1.977997,0c-0.787003,0.447998 -1.584,-0.068008 -1.977997,0"/>
  <path fill="#FFBFD9" id="path103" d="m164.802994,127.929001c2.403992,-1.929001 4.089996,-9.681 -0.785004,-9.096001c0.738998,0.648003 1.457993,1.939003 1.182999,3.558998c-0.608994,3.590004 -4.268005,2.958 -3.162994,-0.790001c-2.080002,2.750999 -0.209,8.280998 2.764999,6.327003"/>
  <path fill="#FFBFD9" id="path105" d="m156.498993,145.330002c-5.223999,4.113998 7.154007,6.220993 0,0"/>
  <path id="path107" d="m170.339005,113.693001c0.371002,-0.669998 -0.705002,2.084 -0.393005,2.373001c2.027008,1.876999 4.082001,-2.706001 0.393005,-2.373001"/>
  <path id="path109" d="m200.792999,119.228996c-1.000992,1.475006 -0.781998,2.769005 0.395996,3.559006c2.17601,-1.374001 2.436005,-3.693001 -0.395996,-3.559006"/>
  <path id="path111" d="m168.757004,135.839996c-0.647003,3.281006 -2.462997,4.844009 0.793991,7.117004c2.996002,-2.080002 2.769012,-3.770996 2.769012,-7.117004c-1.076004,0.294998 -3.258011,-0.014999 -3.563004,0"/>
  <path id="path113" d="m172.320007,118.435997c-3.686996,6.152 4.07901,6.452003 2.768005,-0.393997c-0.858017,0.123001 -1.983017,0.049004 -2.768005,0.393997"/>
  <path id="path115" d="m154.916,130.300995c-2.472,3.787994 3.065002,4.257996 1.979996,0c-0.322998,0.139008 -2.50499,0.13501 -1.979996,0"/>
  <path fill="#FFBFD9" id="path117" d="m182.598999,117.647003c7.147003,0.789993 -4.246994,-9.358002 0,0"/>
  <path fill="#FFBFD9" id="path119" d="m155.313995,126.347c1.916,0.740997 2.556,-0.819 2.768997,-2.767998c-3.184998,-3.320999 -2.992996,1.894997 -2.768997,2.767998"/>
  <path id="path121" d="m181.416,123.579002c-0.432007,1.030998 -0.113007,1.692001 -0.792999,2.374001c1.806,2.298004 3.334991,-0.093002 2.770004,-2.374001c-0.324005,0.139 -2.501007,0.133995 -1.977005,0"/>
  <path fill="#FFBFD9" id="path123" d="m161.244003,138.604996c3.563004,1.584 2.68399,-3.610001 0.397003,-4.349991c-0.764999,1.11499 -0.399002,4.345993 -0.397003,4.349991"/>
  <path fill="#E6B845" id="path125" d="m98.363998,16.799999c-6.517998,-0.394999 -13.972,-2.621999 -18.851997,3.076c-5.244003,6.123001 -3.544998,4.718 -1.712997,10.768c0.254997,-0.389 0.75,-3.141998 1.201996,-3.4c1.343002,-0.767 3.605003,-2.764999 5.126999,-2.927c1.235001,-0.132 2.479004,2.266001 3.575005,1.169001c7.167,-7.166 12.346001,-0.98 13.431,7.133999c0.558998,-2.153 2.865997,-6.338999 2.371994,-8.700998c-0.456993,-2.181 -3.879997,-5.085001 -5.141998,-7.119001"/>
  <path fill="#E6B845" id="path127" d="m134.354004,13.636c-5.609009,3.629 -6.795006,4.550001 -9.066002,10.796c-1.157005,3.182001 -6.958,4.777 -9.125999,2.256001c-3.283005,-3.817999 1.734001,-11.285999 4.477997,-14.203c6.251999,-6.647 20.772995,-5.151999 25.181,2.734c2.744995,4.910999 0.494003,9.118 0,14.236c-0.949005,-5.379 -2.046997,-7.378 -7.117004,-9.492001c0.813004,7.74 0.481003,7.764 -5.537994,12.656c-0.919998,-2.07 -5.306,-8.649 -4.744003,-10.677c0.930008,-3.359999 9.065002,-3.608 5.932007,-8.306"/>
  <path fill="#E6B845" id="path129" d="m165.201004,32.223999c-2.320999,0.387001 -3.458008,1.534 -4.876007,3.209c-2.647003,3.128002 -2.423996,3.156002 -6.432999,2.458c-3.632004,-0.631001 -6.468994,-0.506001 -5.695999,-4.876999c1.044006,-5.905001 8.817001,-11.264 15.028,-11.864c7.861008,-0.758999 24.119995,3.973 24.119995,13.841002c0,5.475998 -2.702988,9.647999 -6.324997,13.446999c0.514999,-1.016998 0.574005,-3.498001 0.395996,-5.144001c-0.42099,-3.893997 -1.002991,-3.841999 -4.748993,-6.720997c-0.468994,1.875 -0.682999,6.557999 -1.977005,7.908997c-1.559998,1.628002 -7.250992,2.115002 -9.488998,2.768002c1.804001,-4.379002 3.706009,-8.479 5.934998,-12.654999c-1.960999,-0.652 -4.606995,-1.269001 -5.93399,-2.371002"/>
  <path fill="#B3995A" id="path131" d="m254.182999,123.974998c-31.848999,17.484001 -63.720001,34.905006 -94.914001,53.389c-32.848,19.462997 -65.271004,39.205002 -98.582996,57.929001c-6.718002,3.776001 -13.127003,6.251999 -20.417,8.916c-6.832001,2.496002 -13.664001,4.992004 -20.496,7.488007c-4.453001,1.626999 -7.141001,4.300995 -10.39,0.016998c15.280999,-5.659012 32.230998,-9.886002 46.430999,-17.925003c17.313999,-9.804001 35.169003,-18.988998 52.044003,-29.531998c28.173004,-17.602005 56.259995,-35.702011 85.39299,-51.529007c20.311005,-11.033997 40.621994,-22.067993 60.932999,-33.102997c-0.000992,1.000999 -0.000992,4.783997 -0.000992,4.349998"/>
  <path id="path133" d="m12.943,207.813004c0.494,-4.680008 0.617001,-7.25 3.19,-11.110001c1.186001,-1.779007 2.372,-3.559006 3.557001,-5.337997c1.077999,-1.617004 3.816999,-2.110001 4.719999,-3.718002c1.709,-3.042999 -1.292,-9.018997 1.189001,-11.072006c0.754,-0.623993 3.742998,-0.752991 4.741999,-1.185989c2.424999,4.190994 12.112999,10.829987 11.077,16.604996c-0.808998,4.509995 -9.771,4.649002 -13.265999,6.556c-3.247,1.770996 -6.493999,3.541 -9.74,5.311996c-1.883001,1.027008 -4.383,3.731003 -5.469001,3.951004"/>
  <path fill="#FF994D" id="path135" d="m16.899,201.485992c2.030001,-5.53801 6.719999,-7.460007 9.958,-11.91301c2.428999,-3.341995 -1.040001,-10.252991 3.483999,-10.230988c1.361,4.084 5.102001,8.238998 7.123001,12.257996c-3.260002,1.944992 -6.847,0.923004 -10.064001,2.914993c-3.421,2.118011 -7.029999,5.239014 -10.500999,6.971008"/>
  <path id="path137" d="m134.354004,120.809998c-5.262009,2.786003 -7.530006,3.559006 -13.446007,3.559006c-5.292999,0 -8.459999,-2.75 -13.229996,-0.166c-3.854004,2.086998 -5.894005,4.712997 -8.521004,0.562996c-1.379997,-2.179001 -1.120995,-4.084 0.196999,-6.723999c1.940002,-3.884003 3.766006,-14.855003 10.084007,-12.259003c2.097,0.862 4.433998,4.433006 6.056,6.056c1.361,1.361 3.739998,2.164001 5.408997,3.074005c4.601997,2.508995 8.438004,4.464996 13.451004,5.896996"/>
  <path fill="#FF994D" id="path139" d="m126.445,120.809998c-4.833,1.526001 -7.137001,-0.236 -11.470001,-1.581001c-5.158997,-1.600998 -8.230995,1.665001 -12.257996,4.351006c-0.289001,-0.313004 -1.461006,-1.734001 -1.583,-1.977005c1.969994,-3.958 4.209,-8.042 6.324997,-12.260994c3.268997,1.726997 4.876999,5.007996 8.188004,6.663994c2.942993,1.471001 9.100998,3.666 10.797997,4.804001"/>
  <path id="path141" d="m195.253998,69.398003c-2.974991,0.117996 -9.899994,-7.590004 -11.720993,-1.931999c-3.962006,12.319 -4.132004,24.253998 -3.700012,37.128998c8.340012,-3.871002 15.992004,-7.622002 18.98201,-17.400002c0.712997,-2.330002 0.123993,-6.290001 0,-8.698997c-0.203003,-3.964005 -1.977997,-5.215004 -3.561005,-9.098"/>
  <path fill="#FF994D" id="path143" d="m195.253998,77.306999c-1.440994,-3.131996 -3.671997,-5.184998 -8.302994,-7.908997c-3.710999,9.887001 -4.268997,20.384995 -3.16301,30.848999c8.212006,-4.484001 11.306,-13.968002 11.466003,-22.940002"/>
  <path id="path145" d="m209.095993,90.752998c5.009003,1.583 10.018997,3.165001 15.026993,4.748001c-1.707993,4.356003 -3.416,8.712997 -5.125,13.069c-2.386002,6.084 -1.283997,7.662003 -7.526993,5.32c-5.554001,-2.083 -4.727005,-1.949997 -4.076996,-7.796997c0.567001,-5.114006 1.13501,-10.227005 1.701996,-15.340004"/>
  <path fill="#66CC29" id="path147" d="m212.259003,95.896004c2.938995,1.175995 6.403992,1 5.252991,4.350998c-1.223999,3.558998 -2.445999,7.117996 -3.669998,10.675995c-4.731003,-1.892998 -3.932999,-2.445999 -2.965988,-7.315994c0.444,-2.235001 1.664993,-6.362999 1.382996,-7.710999"/>
  <path id="path149" d="m192.886993,83.238998c-2.638,4.482002 -5.274002,8.964005 -7.912003,13.445999c4.186005,2.136002 8.369995,4.271004 12.556,6.407005c5.936996,3.028999 6.052002,4.839996 9.391998,-1.067001c3.268005,-5.779999 1.826004,-5.202003 -3.136002,-9.560005c-3.391983,-2.977997 -7.010986,-7.139999 -10.899994,-9.225998"/>
  <path fill="#66CC29" id="path151" d="m194.070007,89.170998c-1.83699,3.938004 -4.093002,5.225006 -0.089005,7.361c2.91301,1.554001 8.291,6.509003 10.174011,3.120003c1.958984,-3.525002 -7.508011,-8.434998 -10.085007,-10.481003"/>
  <path id="path153" d="m94.014999,45.273998c-3.334,3.293003 -6.546997,7.105003 -8.307999,11.470001c6.625,0.389 15.578003,-0.801998 21.694,1.843002c7.498001,3.243 14.954002,6.361996 22.600006,9.23c-2.599007,-7.425003 -7.810005,-17.563 -15.026009,-21.355c-5.530998,-2.907001 -15.288002,-2.700001 -20.959999,-1.188004"/>
  <path fill="#FF994D" id="path155" d="m122.884003,60.699001c-11.055,-4.792 -19.177002,-7.509003 -31.245003,-7.91c2.859001,-2.313 4.984001,-4.126003 9.887001,-3.955002c3.335999,0.116001 9.781998,0.75 12.655998,2.372002c3.315002,1.870998 6.166,8.301998 8.702003,9.493"/>
  <path id="path157" d="m155.707993,56.348c-3.559006,-2.241001 -7.117004,-4.482998 -10.67601,-6.723999c-1.496994,3.577 -2.993988,7.154999 -4.490997,10.731998c-2.097,5.008999 -3.890991,5.575001 0.932999,8.253002c4.759003,2.643997 4.34201,0.970001 7.646011,-3.277c1.572998,-2.024002 6.700012,-7.295002 6.587997,-8.984001"/>
  <path fill="#66CC29" id="path159" d="m150.173004,57.534c-1.318008,-0.922001 -2.637009,-1.844002 -3.955002,-2.767002c-1.033005,2.583 -2.065002,5.167 -3.098999,7.751003c-0.76001,1.899998 1.289993,4.959995 2.108994,3.321995c1.429001,-2.850998 4.076004,-5.177998 4.945007,-8.305996"/>
  <path id="path161" d="m65.934998,206.628998c-3.506996,-2.744003 -6.300999,-4.330002 -9.095997,-7.910004c7.201,-2.257996 15.939999,-3.541992 22.275997,-7.710999c7.776001,-5.116989 15.466003,-9.916 23.602005,-14.43399c-0.434006,4.983994 0.002998,8.192993 -3.267006,11.899002c-2.569,2.910995 -6.605995,9.972 -10.378998,11.233994c-7.044998,2.358994 -15.848999,11.742004 -23.136002,6.921997"/>
  <path fill="#FF994D" id="path163" d="m96.785004,184.481995c-5.134003,3.641998 -10.036003,7.638 -15.724007,10.350006c-6.014999,2.865982 -12.178993,3.981995 -18.683998,5.466995c3.303001,1.776001 7.550003,3.863998 11.863998,2.770996c7.07,-1.789993 19.056,-12.522995 22.544006,-18.587997"/>
  <path id="path165" d="m77.404999,152.052994c-10.066002,1.36499 -28.361,0.821991 -35.5,9.996002c-3.963997,5.093994 -7.869999,11.097 -2.263,16.702988c5.993,5.993011 10.886002,3.343002 16.803001,-1.388992c-1.713001,5.667999 -3.425999,11.335999 -5.139999,17.003998c12.390999,-0.923004 24.781998,-1.845001 37.172997,-2.768005c-1.185997,-5.667999 -2.371994,-11.335999 -3.557999,-17.003998c5.757004,5.346008 5.880005,5.049011 13.482002,3.06601c4.111,-1.070999 5.056999,-9.88501 4.708,-13.548004c-1.080002,-11.382996 -16.997002,-11.165985 -25.705002,-12.059998"/>
  <path fill="#FFF299" id="path167" d="m55.653999,190.809006c2.042999,-2.612991 3.954002,-10.470993 3.954002,-13.839996c0,-4.151001 -4.496002,-4.516006 -7.516003,-4.748001c4.226002,3.729004 -3.117001,7.891006 -6.719997,6.727005c-3.565002,-1.152008 -5.103001,-9.320999 -3.092003,-11.699005c7.989002,-9.447998 18.381001,-9.520996 29.969002,-10.917999c5.140999,-0.619995 9.314003,-0.391998 14.520996,0.112c3.192001,0.309006 10.805,2.542999 11.710007,5.936996c1.031998,3.86499 2.147995,11.119995 -3.132004,12.626007c-3.536003,1.009003 -3.843002,1.335999 -6.918999,-0.622009c-2.578003,-1.641998 -1.041,-4.703995 1.629997,-5.720993c-2.648994,0.757004 -8.747002,1.964996 -8.278999,6.173996c0.517998,4.664993 1.037003,9.330002 1.555,13.996002c-9.217003,0.666992 -18.448997,1.559998 -27.681,1.975998"/>
  <path fill="#B37D47" id="path169" d="m81.360001,174.201004c2.971001,-3.71701 4.121002,-4.230011 8.699997,-5.539001c-9.652,3.675003 6.784004,12.546997 7.911003,3.164001c-2.193001,1.494003 -4.151001,1.82399 -6.724998,1.188995c3.775002,-3.744003 -0.254005,-7.951996 -4.747002,-6.727005c-5.699997,1.556 -3.335999,6.340012 -5.139,7.91301"/>
  <path fill="#B37D47" id="path171" d="m44.581001,177.757996c3.126999,-0.778992 4.878998,-0.127991 4.452999,-3.528c-0.174,-1.391998 1.485001,-4.615997 2.889999,-4.897995c4.146,-0.830994 3.644001,0.270996 5.313999,3.285995c-1.715,-0.132004 -3.43,-0.264999 -5.145,-0.395996c5.349003,4.716995 -6.008999,8.289001 -7.511997,5.535995"/>
  <path fill="#B37D47" id="path173" d="m99.946999,167.477005c-1.628998,-5.695999 -5.237,-10.266998 -11.730995,-10.895004c-7.989006,-0.772003 -14.325005,-0.449997 -22.308006,0.513c-8.096996,0.977005 -12.565998,2.242004 -19.875996,5.897003c-5.859001,2.929993 -5.707001,11.149002 -1.452,15.162003c-3.753002,-4.802002 -1.182003,-12.184006 4.112999,-14.302002c7.082001,-2.833008 12.858997,-3.738998 20.478996,-4.69101c10.554001,-1.317993 32.099007,-4.23999 28.798004,12.271011c0.722,-1.300003 1.513,-2.602005 1.976997,-3.955002"/>
  <path fill="#D9B86C" id="path175" d="m63.563,190.414001c1.498997,-7.487 1.243,-13.701004 0.792004,-21.356995c3.330994,0.384995 6.660995,0.769989 9.991997,1.153992c0.732002,0.085007 0.110001,8.744003 0.089996,9.722c-0.020996,1.014008 0.252007,9.669998 -0.521996,9.701996c-3.385002,0.141998 -7.098999,-0.186996 -10.352001,0.779007"/>
  <path id="path177" d="m134.746994,54.766998c-3.514999,-2.313 -7.687004,-5.950996 -11.862007,-6.724998c0.388,6.610001 2.647003,15.417 0.691002,21.774002c-2.427002,7.890999 -4.697998,15.681999 -6.624001,23.707001c3.889,-2.161003 6.947998,-3.775002 9.960999,-6.982002c2.262001,-2.407997 9.418007,-7.594002 9.418007,-11.014c0.001007,-6.998001 2.284012,-14.506001 -1.584,-20.760002"/>
  <path fill="#FF994D" id="path179" d="m122.489998,85.612c4.106003,-11.579002 5.959007,-19.750999 5.140999,-32.033001c1.32901,2.640003 4.641998,4.296001 5.141006,8.701c1.244003,10.985001 -3.564011,15.738998 -10.282005,23.332001"/>
  <path fill="#E6B845" id="path181" d="m217.798004,61.092999c0.96199,3.490002 1.925003,6.980999 2.886993,10.472004c0.656006,2.381996 -2.166992,5.617996 -3.278992,7.721001c5.673996,0 6.939987,0.825996 10.147995,-3.808006c1.438995,-2.078995 0.528992,-4.474998 -0.065002,-6.868996c-1.444,-5.816002 -3.828995,-8.814003 -7.315994,-14.040001c-1.915009,-2.869999 -8.521011,-6.920002 -11.863998,-6.920002c-2.186005,0 -4.506012,-1.427998 -6.723999,-1.581997c-3.49501,-0.242001 -5.074005,1.029999 -8.697006,3.162998c2.722992,0.409 6.959,0.035999 8.770996,2.237999c1.477997,1.794003 2.955002,3.589001 4.432999,5.384003c0.969009,1.176998 3.787003,0.718998 4.590012,1.871998c1.079987,1.549999 -0.317001,6.841003 0.39299,9.096001c0.421997,1.342003 1.369003,2.800003 1.979996,3.954002c0.886002,-3.468002 4.559006,-8.092003 4.743011,-10.681004"/>
  <path fill="#E6B845" id="path183" d="m246.667999,95.896004c-1.132996,3.558998 -1.248001,7.903999 -4.350006,8.306c-1.294998,0.167 -4.615997,-1.535004 -5.929993,-1.978004c0.636002,-1.060997 1.602997,-2.006996 2.567993,-2.966995c1.335007,-1.327003 -1.181,-6.165001 -1.825989,-8.195007c-0.677002,-2.125999 -9.125,-7.060997 -10.63501,-6.634995c2.654999,-1.532005 3.805008,-3.526001 6.969009,-2.309006c2.345001,0.901001 7.363998,1.651001 8.511002,4.031006c1.565994,3.248001 3.128998,6.498001 4.692993,9.747002"/>
 </g>
</svg>