<svg id="Layer_1" data-name="Layer 1" xmlns="http://www.w3.org/2000/svg" viewBox="0 0 1867 1867"><defs><style>.cls-1{fill:#ffdd67;}.cls-2{fill:#fff;}</style></defs><title>triste</title><path class="cls-1" d="M933.5,1857c-124.68,0-245.62-24.42-359.46-72.57A926.82,926.82,0,0,1,82.57,1293C34.42,1179.12,10,1058.18,10,933.5S34.42,687.88,82.57,574A926.85,926.85,0,0,1,574,82.57C687.88,34.42,808.82,10,933.5,10S1179.12,34.42,1293,82.57A926.82,926.82,0,0,1,1784.43,574C1832.58,687.88,1857,808.82,1857,933.5s-24.42,245.62-72.57,359.46A926.82,926.82,0,0,1,1293,1784.43C1179.12,1832.58,1058.18,1857,933.5,1857Z"/><path d="M933.5,20a919.71,919.71,0,0,1,184.12,18.56,913.16,913.16,0,0,1,710.83,710.82,922.42,922.42,0,0,1,0,368.24,913.18,913.18,0,0,1-710.83,710.83,922.42,922.42,0,0,1-368.24,0A913.18,913.18,0,0,1,38.55,1117.62a922.42,922.42,0,0,1,0-368.24A913.18,913.18,0,0,1,749.38,38.55,919.7,919.7,0,0,1,933.5,20m0-20C417.94,0,0,417.94,0,933.5S417.94,1867,933.5,1867,1867,1449.06,1867,933.5,1449.06,0,933.5,0Z"/><circle class="cls-1" cx="971" cy="998" r="787"/><rect class="cls-2" x="438.61" y="547.1" width="263.88" height="95.7" transform="translate(-221.03 364.98) rotate(-30)"/><circle class="cls-2" cx="658" cy="740" r="87"/><circle class="cls-2" cx="1238" cy="740" r="87"/><rect class="cls-2" x="1276.69" y="463.01" width="95.7" height="263.88" transform="translate(147.03 1444.56) rotate(-60)"/><path class="cls-2" d="M971.5,1138.9c-179.61,0-337.13,55.19-425.5,138.1v160.67C642.64,1366,797.15,1319.6,971.28,1319.6c174.39,0,329.11,46.55,425.72,118.4V1277C1308.63,1194.09,1151.11,1138.9,971.5,1138.9Z"/></svg>